<?xml version="1.0" encoding="utf-8"?>
<svg version="1.1" xmlns:xlink="http://www.w3.org/1999/xlink" width="548px" height="56px" xmlns="http://www.w3.org/2000/svg">
  <g transform="matrix(1 0 0 1 -164 -97 )">
    <path d="M 692.0284956423955 98.5  C 692.0284956423955 98.5  692.924372332253 98.54577472137959  692.924372332253 98.54577472137959  C 692.924372332253 98.54577472137959  710.4364025534575 125  710.4364025534575 125  C 710.4364025534575 125  692.924372332253 151.4542252786204  692.924372332253 151.4542252786204  C 692.924372332253 151.4542252786204  692.0284956423955 151.5  692.0284956423955 151.5  C 692.0284956423955 151.5  176 151.5  176 151.5  C 170.12 151.5  165.5 146.88  165.5 141  C 165.5 141  165.5 109  165.5 109  C 165.5 103.12  170.12 98.5  176 98.5  C 176 98.5  692.0284956423955 98.5  692.0284956423955 98.5  Z " fill-rule="nonzero" fill="#dc851f" stroke="none" fill-opacity="0" />
    <path d="M 691.2189970949304 98  C 691.2189970949304 98  693.1495815548353 98.09864300160099  693.1495815548353 98.09864300160099  C 693.1495815548353 98.09864300160099  710.9576017023049 125  710.9576017023049 125  C 710.9576017023049 125  693.1495815548353 151.90135699839902  693.1495815548353 151.90135699839902  C 693.1495815548353 151.90135699839902  691.2189970949304 152  691.2189970949304 152  C 691.2189970949304 152  176 152  176 152  C 169.84 152  165 147.16  165 141  C 165 141  165 109  165 109  C 165 102.84  169.84 98  176 98  C 176 98  691.2189970949304 98  691.2189970949304 98  Z " stroke-width="2" stroke="#ffb74d" fill="none" />
  </g>
  
  <text x="100" y="30" font-family="Arial" font-size="20" fill="#dc851f" text-anchor="middle" alignment-baseline="middle" font-weight="bold">
      制作绘本
  </text>
</svg>

