<?xml version="1.0" encoding="utf-8"?>
<svg version="1.1" xmlns:xlink="http://www.w3.org/1999/xlink" width="293px" height="72px" xmlns="http://www.w3.org/2000/svg">
  <g transform="matrix(1 0 0 1 -1001 -216 )">
    <path d="M 1004.7737430167598 266.4799999999999  C 1004.7737430167598 266.4799999999999  1004.7737430167598 226  1004.7737430167598 226  C 1004.7737430167598 220.75329487660747  1009.0270378933673 216.5  1014.2737430167598 216.5  C 1014.2737430167598 216.5  1284 216.5  1284 216.5  C 1289.2467051233925 216.5  1293.5 220.75329487660747  1293.5 226  C 1293.5 226  1293.5 266.4799999999999  1293.5 266.4799999999999  C 1293.5 271.72670512339243  1289.2467051233925 275.9799999999999  1283.9999999999998 275.97999999999985  C 1283.9999999999998 275.97999999999985  1062.7225134521948 275.9799999999999  1062.7225134521948 275.9799999999999  C 1062.7225134521948 275.9799999999999  1007.5753942457426 286.0586045277195  1007.5753942457426 286.0586045277195  C 1007.5753942457426 286.0586045277195  1036.8723013241706 275.9799999999999  1036.8723013241706 275.9799999999999  C 1036.8723013241706 275.9799999999999  1014.2737430167598 275.9799999999999  1014.2737430167598 275.9799999999999  C 1009.0270378933673 275.9799999999999  1004.7737430167598 271.72670512339243  1004.7737430167598 266.4799999999999  Z " fill-rule="nonzero" fill="#fce6d5" stroke="none" />
    <path d="M 1004.2737430167598 266.4799999999999  C 1004.2737430167598 266.4799999999999  1004.2737430167598 226  1004.2737430167598 226  C 1004.2737430167598 220.47715250169207  1008.7508955184518 216  1014.2737430167598 216  C 1014.2737430167598 216  1284 216  1284 216  C 1289.5228474983078 216  1294 220.47715250169207  1294 226  C 1294 226  1294 266.4799999999999  1294 266.4799999999999  C 1294 272.0028474983078  1289.5228474983078 276.4799999999999  1284 276.4799999999999  C 1284 276.4799999999999  1062.767827801513 276.4799999999999  1062.767827801513 276.4799999999999  C 1062.767827801513 276.4799999999999  1001.1444298389752 287.7421994884917  1001.1444298389752 287.7421994884917  C 1001.1444298389752 287.7421994884917  1033.8818600065738 276.4799999999999  1033.8818600065738 276.4799999999999  C 1033.8818600065738 276.4799999999999  1014.2737430167598 276.4799999999999  1014.2737430167598 276.4799999999999  C 1008.7508955184518 276.4799999999999  1004.2737430167598 272.0028474983078  1004.2737430167598 266.4799999999999  Z M 1005.2737430167598 266.4799999999999  C 1005.2737430167598 271.450562748477  1009.3031802682826 275.4799999999999  1014.2737430167598 275.4799999999999  C 1014.2737430167598 275.4799999999999  1039.8627426417675 275.4799999999999  1039.8627426417675 275.4799999999999  C 1039.8627426417675 275.4799999999999  1014.00635865251 284.3750095669473  1014.00635865251 284.3750095669473  C 1014.00635865251 284.3750095669473  1062.6771991028763 275.4799999999999  1062.6771991028763 275.4799999999999  C 1062.6771991028763 275.4799999999999  1284 275.4799999999999  1284 275.4799999999999  C 1288.970562748477 275.4799999999999  1293 271.450562748477  1293 266.4799999999999  C 1293 266.4799999999999  1293 226  1293 226  C 1293 221.02943725152286  1288.970562748477 217  1284 217  C 1284 217  1014.2737430167598 217  1014.2737430167598 217  C 1009.3031802682826 217  1005.2737430167598 221.02943725152286  1005.2737430167598 226  C 1005.2737430167598 226  1005.2737430167598 266.4799999999999  1005.2737430167598 266.4799999999999  Z " fill-rule="nonzero" fill="#ede2d2" stroke="none" />
  </g>
</svg>