<?xml version="1.0" encoding="utf-8"?>
<svg version="1.1" xmlns:xlink="http://www.w3.org/1999/xlink" width="395px" height="774px" xmlns="http://www.w3.org/2000/svg">
  <defs>
    <filter x="926px" y="185px" width="395px" height="774px" filterUnits="userSpaceOnUse" id="filter79">
      <feOffset dx="5" dy="5" in="SourceAlpha" result="shadowOffsetInner" />
      <feGaussianBlur stdDeviation="2.5" in="shadowOffsetInner" result="shadowGaussian" />
      <feComposite in2="shadowGaussian" operator="atop" in="SourceAlpha" result="shadowComposite" />
      <feColorMatrix type="matrix" values="0 0 0 0 1  0 0 0 0 0.9490196078431372  0 0 0 0 0.792156862745098  0 0 0 1 0  " in="shadowComposite" />
    </filter>
    <g id="widget80">
      <path d="M 929 200  A 12 12 0 0 1 941 188 L 1296 188  A 12 12 0 0 1 1308 200 L 1308 934  A 12 12 0 0 1 1296 946 L 941 946  A 12 12 0 0 1 929 934 L 929 200  Z " fill-rule="nonzero" fill="#fff2ca" stroke="none" fill-opacity="0.21568627450980393" />
      <path d="M 927.5 200  A 13.5 13.5 0 0 1 941 186.5 L 1296 186.5  A 13.5 13.5 0 0 1 1309.5 200 L 1309.5 934  A 13.5 13.5 0 0 1 1296 947.5 L 941 947.5  A 13.5 13.5 0 0 1 927.5 934 L 927.5 200  Z " stroke-width="3" stroke="#b8301b" fill="none" stroke-opacity="0.3843137254901961" />
    </g>
  </defs>
  <g transform="matrix(1 0 0 1 -926 -185 )">
    <use xlink:href="#widget80" filter="url(#filter79)" />
    <use xlink:href="#widget80" />
  </g>
</svg>