<?xml version="1.0" encoding="utf-8"?>
<svg version="1.1" xmlns:xlink="http://www.w3.org/1999/xlink" width="32px" height="31px" xmlns="http://www.w3.org/2000/svg">
  <g transform="matrix(1 0 0 1 -1266 -188 )">
    <path d="M 4.74 25.4599609375  C 4.993333333333334 25.211046006944446  5.12 24.904947916666664  5.12 24.541666666666664  C 5.12 24.191840277777782  4.993333333333334 23.889105902777782  4.74 23.633463541666664  C 4.486666666666667 23.377821180555554  4.1866666666666665 23.25  3.84 23.25  C 3.48 23.25  3.1766666666666667 23.377821180555554  2.93 23.633463541666664  C 2.6833333333333336 23.889105902777782  2.56 24.191840277777782  2.56 24.541666666666664  C 2.56 24.904947916666664  2.6833333333333336 25.211046006944446  2.93 25.4599609375  C 3.1766666666666667 25.708875868055554  3.48 25.833333333333336  3.84 25.833333333333336  C 4.1866666666666665 25.833333333333336  4.486666666666667 25.708875868055554  4.74 25.4599609375  Z M 7.94 13.300130208333334  C 8.193333333333333 13.555772569444443  8.32 13.858506944444443  8.32 14.208333333333334  L 8.32 27.125  C 8.32 27.47482638888889  8.193333333333333 27.77756076388889  7.94 28.033203125  C 7.686666666666667 28.28884548611111  7.386666666666668 28.416666666666664  7.04 28.416666666666664  L 1.28 28.416666666666664  C 0.9333333333333335 28.416666666666664  0.6333333333333333 28.28884548611111  0.38 28.033203125  C 0.12666666666666665 27.77756076388889  0 27.47482638888889  0 27.125  L 0 14.208333333333334  C 0 13.858506944444443  0.12666666666666665 13.555772569444443  0.38 13.300130208333334  C 0.6333333333333333 13.044487847222223  0.9333333333333335 12.916666666666666  1.28 12.916666666666666  L 7.04 12.916666666666666  C 7.386666666666668 12.916666666666666  7.686666666666667 13.044487847222223  7.94 13.300130208333334  Z M 30.86 11.483723958333334  C 31.62 12.250651041666666  32 13.158854166666666  32 14.208333333333334  C 32 15.36545138888889  31.633333333333336 16.367838541666668  30.9 17.215494791666668  C 31.100000000000005 17.807508680555554  31.200000000000003 18.31879340277778  31.2 18.749348958333332  C 31.240000000000006 19.77191840277778  30.95333333333334 20.693576388888886  30.34 21.514322916666668  C 30.56666666666667 22.267795138888886  30.56666666666667 23.054904513888886  30.34 23.875651041666664  C 30.14 24.642578125  29.78 25.274956597222218  29.26 25.772786458333336  C 29.38 27.279730902777782  29.053333333333335 28.497395833333336  28.28 29.42578125  C 27.42666666666667 30.448350694444446  26.113333333333333 30.973090277777782  24.34 31  L 23.62 31  L 22.1 31  L 21.76 31  C 20.88 31  19.92 30.89572482638889  18.88 30.687174479166664  C 17.84 30.478624131944446  17.03 30.283528645833336  16.45 30.101888020833336  C 15.87 29.920247395833336  15.066666666666668 29.65451388888889  14.04 29.3046875  C 12.4 28.726128472222218  11.346666666666668 28.430121527777782  10.88 28.416666666666664  C 10.533333333333335 28.403211805555554  10.233333333333334 28.272026909722218  9.98 28.023111979166664  C 9.726666666666667 27.77419704861111  9.600000000000001 27.47482638888889  10 27.125  L 10 14.188151041666666  C 9.600000000000001 13.85177951388889  9.72 13.55913628472222  9.96 13.310221354166666  C 10.200000000000001 13.06130642361111  10.486666666666668 12.92339409722222  10.82 12.896484375  C 11.14 12.869574652777773  11.646666666666668 12.472656249999996  12.34 11.705729166666666  C 13.033333333333335 10.93880208333333  13.706666666666667 10.124782986111107  14.36 9.263671875  C 15.26666666666667 8.093098958333334  15.940000000000003 7.285807291666665  16.38 6.841796875  C 16.62 6.599609375  16.826666666666668 6.276692708333335  17 5.873046875  C 17.173333333333336 5.469401041666665  17.29 5.14312065972222  17.35 4.894205729166665  C 17.41 4.645290798611108  17.5 4.23828125  17.62 3.6731770833333344  C 17.713333333333335 3.1484375  17.79666666666667 2.738064236111108  17.87 2.4420572916666656  C 17.943333333333335 2.1460503472222197  18.073333333333334 1.7962239583333344  18.26 1.392578125  C 18.44666666666667 0.9889322916666655  18.673333333333336 0.6525607638888885  18.94 0.3834635416666655  C 19.193333333333335 0.12782118055555403  19.493333333333336 0  19.84 0  C 20.453333333333333 0  21.003333333333334 0.07063802083333448  21.49 0.2119140625  C 21.97666666666667 0.3531901041666655  22.37666666666667 0.528103298611108  22.69 0.7366536458333345  C 23.003333333333334 0.945203993055554  23.27 1.217664930555554  23.49 1.5540364583333344  C 23.71 1.890407986111108  23.87 2.193142361111108  23.97 2.4622395833333344  C 24.07 2.731336805555554  24.15 3.0677083333333344  24.21 3.4713541666666656  C 24.27 3.875  24.303333333333335 4.177734375  24.31 4.379557291666665  C 24.31666666666667 4.581380208333335  24.32 4.84375  24.32 5.166666666666665  C 24.32 5.677951388888888  24.25666666666667 6.189236111111108  24.13 6.700520833333335  C 24.003333333333334 7.211805555555554  23.87666666666667 7.615451388888888  23.75 7.911458333333335  C 23.623333333333335 8.207465277777773  23.44 8.58420138888889  23.2 9.041666666666666  C 23.16 9.122395833333334  23.093333333333334 9.243489583333334  23 9.404947916666666  C 22.90666666666667 9.56640625  22.833333333333336 9.71440972222222  22.78 9.848958333333334  C 22.72666666666667 9.983506944444443  22.673333333333336 10.144965277777773  22.62 10.333333333333334  L 28.16 10.333333333333334  C 29.2 10.333333333333334  30.1 10.716796875  30.86 11.483723958333334  Z " fill-rule="nonzero" fill="#909090" stroke="none" transform="matrix(1 0 0 1 1266 188 )" />
  </g>
</svg>