<?xml version="1.0" encoding="utf-8"?>
<svg version="1.1" xmlns:xlink="http://www.w3.org/1999/xlink" width="80px" height="420px" xmlns="http://www.w3.org/2000/svg">
  <defs>
    <filter x="48px" y="299px" width="80px" height="420px" filterUnits="userSpaceOnUse" id="filter37">
      <feOffset dx="5" dy="5" in="SourceAlpha" result="shadowOffsetInner" />
      <feGaussianBlur stdDeviation="2.5" in="shadowOffsetInner" result="shadowGaussian" />
      <feComposite in2="shadowGaussian" operator="atop" in="SourceAlpha" result="shadowComposite" />
      <feColorMatrix type="matrix" values="0 0 0 0 0.8627450980392157  0 0 0 0 0.5215686274509804  0 0 0 0 0.12156862745098039  0 0 0 0.396078431372549 0  " in="shadowComposite" />
    </filter>
    <g id="widget38">
      <path d="M 51.5 334  A 31.5 31.5 0 0 1 83 302.5 A 31.5 31.5 0 0 1 114.5 334 L 114.5 674  A 31.5 31.5 0 0 1 83 705.5 A 31.5 31.5 0 0 1 51.5 674 L 51.5 334  Z " fill-rule="nonzero" fill="#f59a23" stroke="none" fill-opacity="0.14901960784313725" />
      <path d="M 50 334  A 33 33 0 0 1 83 301 A 33 33 0 0 1 116 334 L 116 674  A 33 33 0 0 1 83 707 A 33 33 0 0 1 50 674 L 50 334  Z " stroke-width="4" stroke="#dc851f" fill="none" />
    </g>
  </defs>
  <g transform="matrix(1 0 0 1 -48 -299 )">
    <use xlink:href="#widget38" filter="url(#filter37)" />
    <use xlink:href="#widget38" />
  </g>
</svg>